<?xml version="1.0" encoding="UTF-8" standalone="no"?>
<!-- Created with Inkscape (http://www.inkscape.org/) -->

<svg
   width="160mm"
   height="270mm"
   viewBox="0 0 160 270"
   version="1.1"
   id="svg1"
   xml:space="preserve"
   inkscape:version="1.3 (1:1.3+202307231459+0e150ed6c4)"
   sodipodi:docname="logo.svg"
   inkscape:export-filename="plenosapp/static/images/logoSQ.png"
   inkscape:export-xdpi="31.169399"
   inkscape:export-ydpi="31.169399"
   xmlns:inkscape="http://www.inkscape.org/namespaces/inkscape"
   xmlns:sodipodi="http://sodipodi.sourceforge.net/DTD/sodipodi-0.dtd"
   xmlns="http://www.w3.org/2000/svg"
   xmlns:svg="http://www.w3.org/2000/svg"><sodipodi:namedview
     id="namedview1"
     pagecolor="#e1e1e1"
     bordercolor="#000000"
     borderopacity="1"
     inkscape:showpageshadow="false"
     inkscape:pageopacity="0"
     inkscape:pagecheckerboard="true"
     inkscape:deskcolor="#d1d1d1"
     inkscape:document-units="mm"
     showguides="true"
     inkscape:clip-to-page="false"
     inkscape:zoom="0.51402139"
     inkscape:cx="313.21654"
     inkscape:cy="610.86952"
     inkscape:window-width="1920"
     inkscape:window-height="1016"
     inkscape:window-x="0"
     inkscape:window-y="27"
     inkscape:window-maximized="1"
     inkscape:current-layer="g4"
     inkscape:export-bgcolor="#ffffffff"><sodipodi:guide
       position="-13.102941,270.00001"
       orientation="0,-1"
       id="guide13"
       inkscape:locked="false" /><sodipodi:guide
       position="0,221.59192"
       orientation="1,0"
       id="guide14"
       inkscape:locked="false" /><sodipodi:guide
       position="85.897056,0.29779413"
       orientation="0,-1"
       id="guide15"
       inkscape:locked="false" /><sodipodi:guide
       position="160.875,146.61397"
       orientation="1,0"
       id="guide16"
       inkscape:locked="false" /><sodipodi:guide
       position="-116.47058,292.56618"
       orientation="1,0"
       id="guide17"
       inkscape:locked="false" /><sodipodi:guide
       position="71.547766,41.209417"
       orientation="0,-1"
       id="guide6"
       inkscape:locked="false" /><sodipodi:guide
       position="229.57053,151.61161"
       orientation="1,0"
       id="guide7"
       inkscape:locked="false" /></sodipodi:namedview><defs
     id="defs1"><rect
       x="48.660174"
       y="869.369"
       width="503.13688"
       height="103.54086"
       id="rect18" /><rect
       x="52.534064"
       y="879.65219"
       width="491.05719"
       height="97.664508"
       id="rect17" /><rect
       x="101.76757"
       y="97.022346"
       width="536.3764"
       height="964.27795"
       id="rect11" /><rect
       x="48.660174"
       y="869.369"
       width="503.13688"
       height="103.54086"
       id="rect4" /></defs><g
     inkscape:label="logo"
     inkscape:groupmode="layer"
     id="layer1"
     transform="translate(-22.023908,-19.590935)"><path
       style="fill:#da566c;stroke:#000000;stroke-width:5;stroke-linecap:round;stroke-linejoin:miter;stroke-dasharray:none;stroke-opacity:1;fill-opacity:1"
       d="m 169.3571,62.269608 -0.0554,-29.032776 -34.15152,0.453981 c 10.10383,6.332558 19.15821,16.844931 25.34778,28.74138 z"
       id="path17"
       inkscape:label="n" /><path
       style="fill:#1abc9c;stroke:#000000;stroke-width:5;stroke-linecap:round;stroke-linejoin:miter;stroke-dasharray:none;stroke-opacity:1;fill-opacity:1"
       d="m 68.936426,169.29592 c -4.85951,11.13649 -2.296424,24.0121 6.48979,32.60133 8.786214,8.58923 22.057526,11.19301 33.603314,6.59285 11.54576,-4.60016 19.08203,-15.4943 19.08203,-27.58421 h 29.81418 c 0,23.75835 -14.78937,45.17381 -37.46359,54.24842 -22.674285,9.07461 -48.761399,4.01862 -66.082442,-12.80755 -17.321042,-16.82616 -22.459859,-42.10395 -13.017354,-64.03222 9.442507,-21.92828 31.60403,-36.18225 56.304689,-36.25455 11.362917,-0.33177 21.573987,-6.38599 26.834377,-15.95895 5.26039,-9.572966 4.74132,-21.156351 -1.35565,-30.252028 C 117.04881,66.753335 106.33453,61.578431 95.200491,62.135676 L 67.503202,61.937489 67.273154,118.061 c -12.5095,6.10721 -22.881008,14.9835 -30.346971,25.57014 l -0.226297,-110.394308 60.427323,0.0771 c 33.928421,0.243539 60.910101,26.594482 60.798191,58.971713 -0.11191,32.377295 -27.27515,58.552735 -60.517274,58.648115 -12.291368,0.0312 -23.612194,7.22567 -28.4717,18.36215 z"
       id="path12"
       inkscape:label="all" /><path
       style="fill:#da566c;fill-rule:evenodd;stroke:#000000;stroke-width:10;stroke-linecap:round;stroke-linejoin:round;stroke-dasharray:none;paint-order:stroke fill markers;fill-opacity:1"
       id="path13"
       sodipodi:type="arc"
       sodipodi:cx="97.606224"
       sodipodi:cy="91.766647"
       sodipodi:rx="13.156119"
       sodipodi:ry="13.156119"
       sodipodi:start="3.6936283"
       sodipodi:end="3.6800923"
       sodipodi:arc-type="chord"
       d="M 86.404331,84.867294 A 13.156119,13.156119 0 0 1 104.46763,80.541471 13.156119,13.156119 0 0 1 108.85455,98.590028 13.156119,13.156119 0 0 1 90.820946,103.038 13.156119,13.156119 0 0 1 86.311971,85.019551 Z"
       sodipodi:open="true"
       inkscape:label="circ" /><path
       style="fill:#da566c;fill-rule:evenodd;stroke:#000000;stroke-width:10;stroke-linecap:round;stroke-linejoin:round;stroke-dasharray:none;paint-order:stroke fill markers;fill-opacity:1"
       id="path13-6"
       sodipodi:type="arc"
       sodipodi:cx="97.606224"
       sodipodi:cy="180.86369"
       sodipodi:rx="13.156119"
       sodipodi:ry="13.156119"
       sodipodi:start="3.1415927"
       sodipodi:end="0"
       sodipodi:arc-type="slice"
       d="m 84.450105,180.86369 a 13.156119,13.156119 0 0 1 13.156119,-13.15612 13.156119,13.156119 0 0 1 13.156116,13.15612 H 97.606224 Z"
       inkscape:label="e" /></g><g
     inkscape:groupmode="layer"
     id="layer3"
     inkscape:label="frame vertical"
     transform="translate(-21.774775,-18.863326)"
     style="display:none"><rect
       style="fill:none;fill-rule:evenodd;stroke:#000000;stroke-width:4.99999;stroke-linecap:round;stroke-linejoin:round;stroke-dasharray:none;paint-order:stroke fill markers"
       id="rect13"
       width="157.98038"
       height="268.00131"
       x="22.923437"
       y="20.132286"
       transform="translate(-0.24913294,-0.72760907)"
       inkscape:label="frame" /><text
       xml:space="preserve"
       transform="matrix(0.59160609,0,0,0.43947415,2.2138072,-141.4533)"
       id="text17"
       style="font-style:normal;font-variant:normal;font-weight:normal;font-stretch:condensed;font-size:80px;line-height:1.25;font-family:Impact;-inkscape-font-specification:'Impact Condensed';white-space:pre;shape-inside:url(#rect18);shape-padding:1.69444;display:inline"><tspan
         x="50.355469"
         y="951.15103"
         id="tspan6"><tspan
           style="font-stretch:normal;-inkscape-font-specification:Impact"
           id="tspan5">PLENOS</tspan></tspan></text></g><g
     inkscape:groupmode="layer"
     id="g4"
     inkscape:label="frame vertical horizontal"
     transform="matrix(1.6870676,0,0,0.99449092,-36.615333,-18.018203)"
     style="stroke-width:3.86014262;stroke-dasharray:none"><text
       xml:space="preserve"
       transform="matrix(-0.00681231,-0.92712614,0.51458938,-0.00235348,-335.69228,289.65615)"
       id="text4"
       style="font-style:normal;font-variant:normal;font-weight:normal;font-stretch:condensed;font-size:80px;line-height:1.25;font-family:Impact;-inkscape-font-specification:'Impact Condensed';white-space:pre;shape-inside:url(#rect4);shape-padding:1.69444;display:inline;stroke-width:7.57043;stroke-dasharray:none"><tspan
         x="50.355469"
         y="951.15103"
         id="tspan8"><tspan
           style="font-stretch:normal;-inkscape-font-specification:Impact"
           id="tspan7">PLENOS</tspan></tspan></text><rect
       style="fill:none;fill-opacity:1;fill-rule:evenodd;stroke:#000000;stroke-width:18.8976;stroke-linecap:round;stroke-linejoin:round;stroke-dasharray:none;paint-order:stroke fill markers"
       id="rect6"
       width="746.0741"
       height="769.59039"
       x="-339.77795"
       y="250.88205"
       transform="matrix(0.18239028,0,0,0.29893566,83.675732,-56.879584)" /></g></svg>
